<svg width="855.546728515625px" height="133.39999999999998px" xmlns="http://www.w3.org/2000/svg" viewBox="-177.7733642578125 8.300000000000011 855.546728515625 133.39999999999998" style="background: none;" preserveAspectRatio="xMidYMid"><defs><filter id="editing-hover" x="-100%" y="-100%" width="300%" height="300%"><feFlood flood-color="rgba(32.15686274509804%,32.94117647058823%,27.058823529411764%,0)" result="flood"></feFlood><feComposite operator="in" in2="SourceAlpha" in="flood" result="shadow"></feComposite><feOffset dx="-4" dy="-4" in="SourceGraphic" result="offset-1"></feOffset><feOffset dx="4" dy="4" in="shadow" result="offset-2"></feOffset><feMerge><feMergeNode in="offset-2"></feMergeNode><feMergeNode in="offset-1"></feMergeNode></feMerge></filter></defs><g filter="url(#editing-hover)"><g transform="translate(-56.015018343925476, 105.71999931335449)"><path d="M21.89 0L16.51 0L16.51-17.54L1.09-44.67L7.23-44.67L13.63-33.02L19.07-22.85L19.33-22.85L24.90-33.02L31.30-44.67L37.31-44.67L21.89-17.54L21.89 0ZM57.60 0.77L57.60 0.77L57.60 0.77Q54.14 0.77 51.36-0.45L51.36-0.45L51.36-0.45Q48.58-1.66 46.62-3.94L46.62-3.94L46.62-3.94Q44.67-6.21 43.65-9.38L43.65-9.38L43.65-9.38Q42.62-12.54 42.62-16.51L42.62-16.51L42.62-16.51Q42.62-20.42 43.65-23.62L43.65-23.62L43.65-23.62Q44.67-26.82 46.62-29.09L46.62-29.09L46.62-29.09Q48.58-31.36 51.36-32.58L51.36-32.58L51.36-32.58Q54.14-33.79 57.60-33.79L57.60-33.79L57.60-33.79Q61.06-33.79 63.84-32.58L63.84-32.58L63.84-32.58Q66.62-31.36 68.58-29.09L68.58-29.09L68.58-29.09Q70.53-26.82 71.55-23.62L71.55-23.62L71.55-23.62Q72.58-20.42 72.58-16.51L72.58-16.51L72.58-16.51Q72.58-12.54 71.55-9.38L71.55-9.38L71.55-9.38Q70.53-6.21 68.58-3.94L68.58-3.94L68.58-3.94Q66.62-1.66 63.84-0.45L63.84-0.45L63.84-0.45Q61.06 0.77 57.60 0.77ZM57.60-3.65L57.60-3.65L57.60-3.65Q61.89-3.65 64.51-6.21L64.51-6.21L64.51-6.21Q67.14-8.77 67.14-14.14L67.14-14.14L67.14-18.88L67.14-18.88Q67.14-24.26 64.51-26.82L64.51-26.82L64.51-26.82Q61.89-29.38 57.60-29.38L57.60-29.38L57.60-29.38Q53.31-29.38 50.69-26.82L50.69-26.82L50.69-26.82Q48.06-24.26 48.06-18.88L48.06-18.88L48.06-14.14L48.06-14.14Q48.06-8.77 50.69-6.21L50.69-6.21L50.69-6.21Q53.31-3.65 57.60-3.65ZM103.81 0L103.81-5.38L103.55-5.38L103.55-5.38Q103.04-4.16 102.27-3.04L102.27-3.04L102.27-3.04Q101.50-1.92 100.38-1.09L100.38-1.09L100.38-1.09Q99.26-0.26 97.73 0.26L97.73 0.26L97.73 0.26Q96.19 0.77 94.14 0.77L94.14 0.77L94.14 0.77Q88.96 0.77 85.82-2.53L85.82-2.53L85.82-2.53Q82.69-5.82 82.69-11.84L82.69-11.84L82.69-33.02L87.81-33.02L87.81-12.74L87.81-12.74Q87.81-8.19 89.79-5.98L89.79-5.98L89.79-5.98Q91.78-3.78 95.62-3.78L95.62-3.78L95.62-3.78Q97.15-3.78 98.62-4.16L98.62-4.16L98.62-4.16Q100.10-4.54 101.25-5.31L101.25-5.31L101.25-5.31Q102.40-6.08 103.10-7.26L103.10-7.26L103.10-7.26Q103.81-8.45 103.81-10.11L103.81-10.11L103.81-33.02L108.93-33.02L108.93 0L103.81 0ZM126.59 0L121.47 0L121.47-33.02L126.59-33.02L126.59-27.65L126.85-27.65L126.85-27.65Q127.36-28.86 128.13-29.98L128.13-29.98L128.13-29.98Q128.90-31.10 130.02-31.94L130.02-31.94L130.02-31.94Q131.14-32.77 132.67-33.28L132.67-33.28L132.67-33.28Q134.21-33.79 136.26-33.79L136.26-33.79L136.26-33.79Q141.44-33.79 144.58-30.50L144.58-30.50L144.58-30.50Q147.71-27.20 147.71-21.18L147.71-21.18L147.71 0L142.59 0L142.59-20.29L142.59-20.29Q142.59-24.83 140.61-27.04L140.61-27.04L140.61-27.04Q138.62-29.25 134.78-29.25L134.78-29.25L134.78-29.25Q133.25-29.25 131.78-28.86L131.78-28.86L131.78-28.86Q130.30-28.48 129.15-27.71L129.15-27.71L129.15-27.71Q128.00-26.94 127.30-25.73L127.30-25.73L127.30-25.73Q126.59-24.51 126.59-22.91L126.59-22.91L126.59 0ZM189.50 3.78L189.50 3.78L189.50 3.78Q189.50 8.77 185.34 11.17L185.34 11.17L185.34 11.17Q181.18 13.57 172.86 13.57L172.86 13.57L172.86 13.57Q164.86 13.57 161.38 11.46L161.38 11.46L161.38 11.46Q157.89 9.34 157.89 5.38L157.89 5.38L157.89 5.38Q157.89 2.69 159.30 1.22L159.30 1.22L159.30 1.22Q160.70-0.26 163.26-0.96L163.26-0.96L163.26-1.73L163.26-1.73Q161.86-2.43 161.09-3.52L161.09-3.52L161.09-3.52Q160.32-4.61 160.32-6.27L160.32-6.27L160.32-6.27Q160.32-8.83 162.02-10.11L162.02-10.11L162.02-10.11Q163.71-11.39 166.27-12.03L166.27-12.03L166.27-12.29L166.27-12.29Q163.20-13.63 161.50-16.26L161.50-16.26L161.50-16.26Q159.81-18.88 159.81-22.40L159.81-22.40L159.81-22.40Q159.81-24.90 160.70-27.01L160.70-27.01L160.70-27.01Q161.60-29.12 163.30-30.62L163.30-30.62L163.30-30.62Q164.99-32.13 167.36-32.96L167.36-32.96L167.36-32.96Q169.73-33.79 172.61-33.79L172.61-33.79L172.61-33.79Q176.32-33.79 179.14-32.45L179.14-32.45L179.14-33.02L179.14-33.02Q179.14-34.94 180.03-36.22L180.03-36.22L180.03-36.22Q180.93-37.50 183.10-37.50L183.10-37.50L189.18-37.50L189.18-33.02L181.76-33.02L181.76-30.78L181.76-30.78Q183.55-29.25 184.51-27.14L184.51-27.14L184.51-27.14Q185.47-25.02 185.47-22.40L185.47-22.40L185.47-22.40Q185.47-19.90 184.54-17.79L184.54-17.79L184.54-17.79Q183.62-15.68 181.95-14.18L181.95-14.18L181.95-14.18Q180.29-12.67 177.89-11.84L177.89-11.84L177.89-11.84Q175.49-11.01 172.61-11.01L172.61-11.01L172.61-11.01Q171.78-11.01 171.01-11.07L171.01-11.07L171.01-11.07Q170.24-11.14 169.47-11.26L169.47-11.26L169.47-11.26Q168.70-11.14 167.87-10.85L167.87-10.85L167.87-10.85Q167.04-10.56 166.34-10.08L166.34-10.08L166.34-10.08Q165.63-9.60 165.18-8.96L165.18-8.96L165.18-8.96Q164.74-8.32 164.74-7.49L164.74-7.49L164.74-7.49Q164.74-6.02 166.21-5.54L166.21-5.54L166.21-5.54Q167.68-5.06 170.05-5.06L170.05-5.06L177.34-5.06L177.34-5.06Q183.74-5.06 186.62-2.66L186.62-2.66L186.62-2.66Q189.50-0.26 189.50 3.78ZM184.70 4.03L184.70 4.03L184.70 4.03Q184.70 2.05 183.10 0.86L183.10 0.86L183.10 0.86Q181.50-0.32 177.54-0.32L177.54-0.32L166.08-0.32L166.08-0.32Q162.75 1.02 162.75 4.16L162.75 4.16L162.75 4.16Q162.75 6.34 164.48 7.90L164.48 7.90L164.48 7.90Q166.21 9.47 170.24 9.47L170.24 9.47L175.23 9.47L175.23 9.47Q179.71 9.47 182.21 8.10L182.21 8.10L182.21 8.10Q184.70 6.72 184.70 4.03ZM172.61-14.98L172.61-14.98L172.61-14.98Q176.45-14.98 178.27-16.77L178.27-16.77L178.27-16.77Q180.10-18.56 180.10-21.50L180.10-21.50L180.10-23.36L180.10-23.36Q180.10-26.30 178.27-28.06L178.27-28.06L178.27-28.06Q176.45-29.82 172.61-29.82L172.61-29.82L172.61-29.82Q168.77-29.82 166.98-28.06L166.98-28.06L166.98-28.06Q165.18-26.30 165.18-23.36L165.18-23.36L165.18-21.50L165.18-21.50Q165.18-18.56 166.98-16.77L166.98-16.77L166.98-16.77Q168.77-14.98 172.61-14.98ZM198.53 12.80L198.53 8.45L214.53 8.45L214.53-28.67L197.95-28.67L197.95-33.02L219.65-33.02L219.65 5.25L219.65 5.25Q219.65 8.58 217.89 10.69L217.89 10.69L217.89 10.69Q216.13 12.80 212.35 12.80L212.35 12.80L198.53 12.80ZM217.09-40.32L217.09-40.32L217.09-40.32Q214.85-40.32 213.95-41.25L213.95-41.25L213.95-41.25Q213.06-42.18 213.06-43.58L213.06-43.58L213.06-44.61L213.06-44.61Q213.06-46.02 213.95-46.94L213.95-46.94L213.95-46.94Q214.85-47.87 217.09-47.87L217.09-47.87L217.09-47.87Q219.33-47.87 220.22-46.94L220.22-46.94L220.22-46.94Q221.12-46.02 221.12-44.61L221.12-44.61L221.12-43.58L221.12-43.58Q221.12-42.18 220.22-41.25L220.22-41.25L220.22-41.25Q219.33-40.32 217.09-40.32ZM265.60 0L262.08 0L262.08 0Q259.07 0 257.79-1.54L257.79-1.54L257.79-1.54Q256.51-3.07 256.19-5.38L256.19-5.38L255.87-5.38L255.87-5.38Q254.78-2.50 252.38-0.86L252.38-0.86L252.38-0.86Q249.98 0.77 245.95 0.77L245.95 0.77L245.95 0.77Q240.77 0.77 237.70-1.92L237.70-1.92L237.70-1.92Q234.62-4.61 234.62-9.28L234.62-9.28L234.62-9.28Q234.62-13.89 237.98-16.38L237.98-16.38L237.98-16.38Q241.34-18.88 248.83-18.88L248.83-18.88L255.87-18.88L255.87-22.14L255.87-22.14Q255.87-25.79 253.82-27.62L253.82-27.62L253.82-27.62Q251.78-29.44 248-29.44L248-29.44L248-29.44Q244.67-29.44 242.56-28.13L242.56-28.13L242.56-28.13Q240.45-26.82 239.17-24.58L239.17-24.58L235.71-27.14L235.71-27.14Q236.35-28.42 237.44-29.63L237.44-29.63L237.44-29.63Q238.53-30.85 240.13-31.78L240.13-31.78L240.13-31.78Q241.73-32.70 243.78-33.25L243.78-33.25L243.78-33.25Q245.82-33.79 248.32-33.79L248.32-33.79L248.32-33.79Q254.14-33.79 257.57-30.85L257.57-30.85L257.57-30.85Q260.99-27.90 260.99-22.66L260.99-22.66L260.99-4.48L265.60-4.48L265.60 0ZM246.85-3.52L246.85-3.52L246.85-3.52Q248.83-3.52 250.46-4L250.46-4L250.46-4Q252.10-4.48 253.31-5.28L253.31-5.28L253.31-5.28Q254.53-6.08 255.20-7.20L255.20-7.20L255.20-7.20Q255.87-8.32 255.87-9.60L255.87-9.60L255.87-15.04L248.83-15.04L248.83-15.04Q244.22-15.04 242.11-13.76L242.11-13.76L242.11-13.76Q240-12.48 240-10.05L240-10.05L240-8.70L240-8.70Q240-6.14 241.82-4.83L241.82-4.83L241.82-4.83Q243.65-3.52 246.85-3.52ZM288.58 0.77L288.58 0.77L288.58 0.77Q284.99 0.77 282.14-0.45L282.14-0.45L282.14-0.45Q279.30-1.66 277.28-3.94L277.28-3.94L277.28-3.94Q275.26-6.21 274.18-9.38L274.18-9.38L274.18-9.38Q273.09-12.54 273.09-16.45L273.09-16.45L273.09-16.45Q273.09-20.42 274.21-23.62L274.21-23.62L274.21-23.62Q275.33-26.82 277.31-29.09L277.31-29.09L277.31-29.09Q279.30-31.36 282.08-32.58L282.08-32.58L282.08-32.58Q284.86-33.79 288.26-33.79L288.26-33.79L288.26-33.79Q291.58-33.79 294.30-32.58L294.30-32.58L294.30-32.58Q297.02-31.36 298.94-29.22L298.94-29.22L298.94-29.22Q300.86-27.07 301.89-24.13L301.89-24.13L301.89-24.13Q302.91-21.18 302.91-17.66L302.91-17.66L302.91-15.23L278.46-15.23L278.46-13.70L278.46-13.70Q278.46-11.52 279.17-9.66L279.17-9.66L279.17-9.66Q279.87-7.81 281.18-6.46L281.18-6.46L281.18-6.46Q282.50-5.12 284.38-4.38L284.38-4.38L284.38-4.38Q286.27-3.65 288.58-3.65L288.58-3.65L288.58-3.65Q291.90-3.65 294.34-5.18L294.34-5.18L294.34-5.18Q296.77-6.72 298.05-9.41L298.05-9.41L301.82-6.85L301.82-6.85Q300.35-3.52 296.93-1.38L296.93-1.38L296.93-1.38Q293.50 0.77 288.58 0.77ZM288.26-29.57L288.26-29.57L288.26-29.57Q286.14-29.57 284.35-28.80L284.35-28.80L284.35-28.80Q282.56-28.03 281.25-26.69L281.25-26.69L281.25-26.69Q279.94-25.34 279.20-23.52L279.20-23.52L279.20-23.52Q278.46-21.70 278.46-19.52L278.46-19.52L278.46-19.07L297.41-19.07L297.41-19.78L297.41-19.78Q297.41-21.95 296.74-23.74L296.74-23.74L296.74-23.74Q296.06-25.54 294.88-26.85L294.88-26.85L294.88-26.85Q293.70-28.16 292-28.86L292-28.86L292-28.86Q290.30-29.57 288.26-29.57ZM354.82-44.67L376.32-44.67L376.32-11.58L376.32-11.58Q376.32-8.77 375.36-6.46L375.36-6.46L375.36-6.46Q374.40-4.16 372.64-2.56L372.64-2.56L372.64-2.56Q370.88-0.96 368.45-0.10L368.45-0.10L368.45-0.10Q366.02 0.77 363.14 0.77L363.14 0.77L363.14 0.77Q358.02 0.77 354.69-1.89L354.69-1.89L354.69-1.89Q351.36-4.54 350.34-9.34L350.34-9.34L355.46-10.43L355.46-10.43Q355.78-9.09 356.32-7.90L356.32-7.90L356.32-7.90Q356.86-6.72 357.79-5.86L357.79-5.86L357.79-5.86Q358.72-4.99 360.06-4.48L360.06-4.48L360.06-4.48Q361.41-3.97 363.26-3.97L363.26-3.97L363.26-3.97Q366.91-3.97 368.93-6.05L368.93-6.05L368.93-6.05Q370.94-8.13 370.94-12.54L370.94-12.54L370.94-40L354.82-40L354.82-44.67ZM419.20 0L415.68 0L415.68 0Q412.67 0 411.39-1.54L411.39-1.54L411.39-1.54Q410.11-3.07 409.79-5.38L409.79-5.38L409.47-5.38L409.47-5.38Q408.38-2.50 405.98-0.86L405.98-0.86L405.98-0.86Q403.58 0.77 399.55 0.77L399.55 0.77L399.55 0.77Q394.37 0.77 391.30-1.92L391.30-1.92L391.30-1.92Q388.22-4.61 388.22-9.28L388.22-9.28L388.22-9.28Q388.22-13.89 391.58-16.38L391.58-16.38L391.58-16.38Q394.94-18.88 402.43-18.88L402.43-18.88L409.47-18.88L409.47-22.14L409.47-22.14Q409.47-25.79 407.42-27.62L407.42-27.62L407.42-27.62Q405.38-29.44 401.60-29.44L401.60-29.44L401.60-29.44Q398.27-29.44 396.16-28.13L396.16-28.13L396.16-28.13Q394.05-26.82 392.77-24.58L392.77-24.58L389.31-27.14L389.31-27.14Q389.95-28.42 391.04-29.63L391.04-29.63L391.04-29.63Q392.13-30.85 393.73-31.78L393.73-31.78L393.73-31.78Q395.33-32.70 397.38-33.25L397.38-33.25L397.38-33.25Q399.42-33.79 401.92-33.79L401.92-33.79L401.92-33.79Q407.74-33.79 411.17-30.85L411.17-30.85L411.17-30.85Q414.59-27.90 414.59-22.66L414.59-22.66L414.59-4.48L419.20-4.48L419.20 0ZM400.45-3.52L400.45-3.52L400.45-3.52Q402.43-3.52 404.06-4L404.06-4L404.06-4Q405.70-4.48 406.91-5.28L406.91-5.28L406.91-5.28Q408.13-6.08 408.80-7.20L408.80-7.20L408.80-7.20Q409.47-8.32 409.47-9.60L409.47-9.60L409.47-15.04L402.43-15.04L402.43-15.04Q397.82-15.04 395.71-13.76L395.71-13.76L395.71-13.76Q393.60-12.48 393.60-10.05L393.60-10.05L393.60-8.70L393.60-8.70Q393.60-6.14 395.42-4.83L395.42-4.83L395.42-4.83Q397.25-3.52 400.45-3.52ZM446.72-19.20L452.29-33.02L457.41-33.02L441.02 7.23L441.02 7.23Q440.45 8.64 439.74 9.70L439.74 9.70L439.74 9.70Q439.04 10.75 438.08 11.42L438.08 11.42L438.08 11.42Q437.12 12.10 435.78 12.45L435.78 12.45L435.78 12.45Q434.43 12.80 432.58 12.80L432.58 12.80L427.71 12.80L427.71 8.45L435.39 8.45L439.10-0.64L425.79-33.02L431.04-33.02L436.61-19.20L441.54-6.66L441.79-6.66L446.72-19.20ZM533.44 0L506.88 0L506.88-44.67L512.26-44.67L512.26-4.67L533.44-4.67L533.44 0ZM558.85-40.32L558.85-40.32L558.85-40.32Q556.61-40.32 555.71-41.25L555.71-41.25L555.71-41.25Q554.82-42.18 554.82-43.58L554.82-43.58L554.82-44.61L554.82-44.61Q554.82-46.02 555.71-46.94L555.71-46.94L555.71-46.94Q556.61-47.87 558.85-47.87L558.85-47.87L558.85-47.87Q561.09-47.87 561.98-46.94L561.98-46.94L561.98-46.94Q562.88-46.02 562.88-44.61L562.88-44.61L562.88-43.58L562.88-43.58Q562.88-42.18 561.98-41.25L561.98-41.25L561.98-41.25Q561.09-40.32 558.85-40.32ZM544.38 0L544.38-4.35L556.29-4.35L556.29-28.67L544.38-28.67L544.38-33.02L561.41-33.02L561.41-4.35L572.54-4.35L572.54 0L544.38 0ZM584.19 0L579.46 0L579.46-33.02L584.19-33.02L584.19-29.18L584.45-29.18L584.45-29.18Q585.22-31.10 586.62-32.45L586.62-32.45L586.62-32.45Q588.03-33.79 590.78-33.79L590.78-33.79L590.78-33.79Q593.66-33.79 595.07-32.35L595.07-32.35L595.07-32.35Q596.48-30.91 596.80-28.61L596.80-28.61L596.99-28.61L596.99-28.61Q597.89-30.85 599.55-32.32L599.55-32.32L599.55-32.32Q601.22-33.79 604.16-33.79L604.16-33.79L604.16-33.79Q608.19-33.79 609.57-30.98L609.57-30.98L609.57-30.98Q610.94-28.16 610.94-22.91L610.94-22.91L610.94 0L606.21 0L606.21-22.08L606.21-22.08Q606.21-26.30 605.34-27.94L605.34-27.94L605.34-27.94Q604.48-29.57 602.18-29.57L602.18-29.57L602.18-29.57Q600.13-29.57 598.85-28.26L598.85-28.26L598.85-28.26Q597.57-26.94 597.57-24.26L597.57-24.26L597.57 0L592.83 0L592.83-22.08L592.83-22.08Q592.83-26.30 591.97-27.94L591.97-27.94L591.97-27.94Q591.10-29.57 588.86-29.57L588.86-29.57L588.86-29.57Q586.82-29.57 585.50-28.26L585.50-28.26L585.50-28.26Q584.19-26.94 584.19-24.26L584.19-24.26L584.19 0Z" fill="#a0a485"></path></g></g><style>text {
  font-size: 64px;
  font-family: Arial Black;
  dominant-baseline: central;
  text-anchor: middle;
}</style></svg>